<svg width="9" height="16" viewBox="0 0 9 16" fill="none" xmlns="http://www.w3.org/2000/svg">
<path d="M8.71359 0.293016C8.90121 0.48069 9.00661 0.735197 9.00661 1.00057C9.00661 1.26594 8.90121 1.52045 8.71359 1.70812L2.41567 8.00604L8.71359 14.304C8.89589 14.4927 8.99677 14.7455 8.99449 15.0079C8.99221 15.2703 8.88696 15.5213 8.7014 15.7069C8.51585 15.8924 8.26484 15.9977 8.00244 16C7.74004 16.0022 7.48724 15.9014 7.29849 15.7191L0.293016 8.71359C0.105398 8.52592 0 8.27141 0 8.00604C0 7.74067 0.105398 7.48616 0.293016 7.29849L7.29849 0.293016C7.48616 0.105398 7.74067 0 8.00604 0C8.27141 0 8.52592 0.105398 8.71359 0.293016Z" fill="white"/>
</svg>
