<svg width="21" height="22" viewBox="0 0 21 22" fill="none" xmlns="http://www.w3.org/2000/svg">
<path d="M20.4978 20.5281C20.4978 20.8301 20.3778 21.1197 20.1643 21.3333C19.9507 21.5469 19.6611 21.6668 19.3591 21.6668H1.13877C0.836748 21.6668 0.547098 21.5469 0.333538 21.3333C0.119977 21.1197 2.74113e-07 20.8301 2.74113e-07 20.5281V8.55847C-0.000120121 8.38494 0.0394209 8.21367 0.115603 8.05775C0.191785 7.90184 0.302594 7.76539 0.439565 7.65884L9.54971 0.573428C9.74961 0.417924 9.99565 0.333496 10.2489 0.333496C10.5022 0.333496 10.7482 0.417924 10.9481 0.573428L20.0583 7.65884C20.1952 7.76539 20.306 7.90184 20.3822 8.05775C20.4584 8.21367 20.4979 8.38494 20.4978 8.55847V20.5281ZM10.2489 14.8342C9.61999 14.8342 9.11014 15.3441 9.11014 15.973V18.2505C9.11014 18.8794 9.61999 19.3893 10.2489 19.3893C10.8778 19.3893 11.3877 18.8794 11.3877 18.2505V15.973C11.3877 15.3441 10.8778 14.8342 10.2489 14.8342Z" fill="white"/>
</svg>
