<?xml version="1.0" encoding="utf-8"?><svg viewBox="0 0 554 140" xmlns="http://www.w3.org/2000/svg" xmlns:xlink="http://www.w3.org/1999/xlink"><style>:root>svg{display:none}:root>svg:target{display:block}</style><svg fill="none" viewBox="0 0 24 24" id="ava" xmlns="http://www.w3.org/2000/svg"><circle cx="12" cy="12" r="12" fill="#fff"/></svg><svg fill="none" viewBox="0 0 9 16" id="back" xmlns="http://www.w3.org/2000/svg"><path d="M8.714.293a1 1 0 010 1.415L2.416 8.006l6.298 6.298a1 1 0 01-1.416 1.415L.293 8.714a1 1 0 010-1.416L7.298.293a1 1 0 011.416 0z" fill="#fff"/></svg><svg fill="none" viewBox="0 0 16 9" id="chevron" xmlns="http://www.w3.org/2000/svg"><path d="M.293.305a1 1 0 011.412 0l6.289 6.288L14.282.305a.999.999 0 111.413 1.413L8.7 8.713a1 1 0 01-1.413 0L.293 1.718a1 1 0 010-1.413z" fill="#fff"/></svg><svg fill="none" viewBox="0 0 24 24" id="chevron50" xmlns="http://www.w3.org/2000/svg"><path d="M4.293 7.305a1 1 0 011.412 0l6.289 6.288 6.288-6.288a.999.999 0 111.413 1.413L12.7 15.713a1 1 0 01-1.413 0L4.293 8.718a1 1 0 010-1.413z" fill="#fff" fill-opacity=".5"/></svg><svg fill="none" viewBox="0 0 16 16" id="clock" xmlns="http://www.w3.org/2000/svg"><path d="M8 0a8 8 0 110 16A8 8 0 018 0zm0 1.6a6.4 6.4 0 100 12.8A6.4 6.4 0 008 1.6zm0 1.6a.8.8 0 01.794.706L8.8 4v3.669l2.166 2.165a.8.8 0 01-1.056 1.198l-.076-.066-2.4-2.4a.8.8 0 01-.227-.461L7.2 8V4a.8.8 0 01.8-.8z" fill="#fff"/></svg><svg fill="none" viewBox="0 0 9 16" id="dollar-icon" xmlns="http://www.w3.org/2000/svg"><path d="M8.33 10.58c0 .911-.296 1.695-.888 2.353-.592.658-1.361 1.064-2.308 1.219v1.562a.278.278 0 01-.08.206.278.278 0 01-.206.08H3.643a.275.275 0 01-.2-.085.275.275 0 01-.086-.2v-1.563a5.626 5.626 0 01-1.138-.277 6.003 6.003 0 01-.906-.397 6.005 6.005 0 01-.66-.429 5.108 5.108 0 01-.416-.335 2.268 2.268 0 01-.156-.16c-.102-.125-.108-.248-.018-.367l.92-1.205c.041-.06.11-.095.205-.107.09-.012.16.015.214.08l.018.018c.673.59 1.396.961 2.17 1.116.22.048.44.072.66.072.482 0 .907-.128 1.273-.384.366-.256.549-.62.549-1.09a.905.905 0 00-.134-.473 1.675 1.675 0 00-.3-.375 2.449 2.449 0 00-.522-.335 11.907 11.907 0 00-.589-.285 18.604 18.604 0 00-.714-.29c-.232-.096-.415-.17-.55-.224a15.379 15.379 0 01-.548-.236 6.5 6.5 0 01-.558-.277 9.2 9.2 0 01-.505-.317 3.146 3.146 0 01-.478-.38 5.554 5.554 0 01-.388-.437 2.187 2.187 0 01-.317-.518 3.575 3.575 0 01-.187-.594 3.103 3.103 0 01-.076-.696c0-.821.291-1.542.875-2.16.583-.62 1.342-1.019 2.276-1.197V.286c0-.078.029-.145.085-.201A.275.275 0 013.643 0h1.205c.084 0 .152.027.206.08.053.054.08.122.08.206v1.571c.34.036.668.104.987.206.318.1.577.2.777.299.199.098.388.21.567.334.178.125.294.212.348.26.053.047.098.089.134.124.1.107.116.22.044.34l-.723 1.303c-.047.09-.116.137-.205.143a.284.284 0 01-.241-.062 1.833 1.833 0 00-.13-.108 4.878 4.878 0 00-.348-.236 3.989 3.989 0 00-1.188-.518 2.979 2.979 0 00-.763-.103c-.565 0-1.027.128-1.384.384s-.536.587-.536.991c0 .155.026.298.076.429.051.13.139.254.264.37.125.116.242.215.352.295.11.08.277.173.5.277a13.795 13.795 0 001.166.486c.315.12.556.213.723.282.167.068.393.172.678.312.286.14.51.267.675.38.163.113.348.262.553.446.205.185.363.374.473.567.11.193.204.421.282.683.077.262.116.542.116.84z" fill="#fff"/></svg><svg fill="none" viewBox="0 0 16 16" id="eth" xmlns="http://www.w3.org/2000/svg"><path fill-rule="evenodd" clip-rule="evenodd" d="M8 16A8 8 0 108 0a8 8 0 000 16zM5 8.122L8 3l3 5.122-3 1.83-3-1.83zM8 13L5 8.732l3 1.829 3-1.83L8 13z" fill="#fff"/></svg><svg fill="none" viewBox="0 0 15 16" id="filter" xmlns="http://www.w3.org/2000/svg"><path d="M4.443 1.78a.889.889 0 100 1.777.889.889 0 000-1.778zm-2.515 0a2.667 2.667 0 015.03 0h6.372a.889.889 0 010 1.777H6.958a2.667 2.667 0 01-5.03 0H.888a.889.889 0 010-1.778h1.04zM9.775 7.11a.889.889 0 100 1.778.889.889 0 000-1.778zm-2.515 0a2.667 2.667 0 015.03 0h1.04a.889.889 0 010 1.778h-1.04a2.667 2.667 0 01-5.03 0H.89a.889.889 0 010-1.778H7.26zm-2.817 5.332a.889.889 0 100 1.778.889.889 0 000-1.778zm-2.515 0a2.667 2.667 0 015.03 0h6.372a.889.889 0 010 1.777H6.958a2.666 2.666 0 01-5.03 0H.888a.889.889 0 110-1.777h1.04z" fill="#fff"/></svg><svg fill="none" viewBox="0 0 21 22" id="home" xmlns="http://www.w3.org/2000/svg"><path d="M20.498 20.528a1.139 1.139 0 01-1.139 1.139H1.14A1.139 1.139 0 010 20.528V8.558a1.139 1.139 0 01.44-.9L9.55.574a1.139 1.139 0 011.398 0l9.11 7.086a1.14 1.14 0 01.44.9v11.97zm-10.25-5.694c-.628 0-1.138.51-1.138 1.139v2.277a1.139 1.139 0 002.278 0v-2.277c0-.629-.51-1.139-1.14-1.139z" fill="#fff"/></svg><svg fill="none" viewBox="0 0 16 16" id="info" xmlns="http://www.w3.org/2000/svg"><path d="M7.2 7.184a.8.8 0 111.6 0v4.8a.8.8 0 11-1.6 0v-4.8zM8 3.24a.8.8 0 100 1.6.8.8 0 000-1.6z" fill="#fff"/><path fill-rule="evenodd" clip-rule="evenodd" d="M8 0a8 8 0 100 16A8 8 0 008 0zM1.6 8a6.4 6.4 0 1012.8 0A6.4 6.4 0 001.6 8z" fill="#fff"/></svg><svg fill="none" viewBox="0 0 196 15" id="logo" xmlns="http://www.w3.org/2000/svg"><g clip-path="url(#kclip0_301_284)"><path d="M.371 14h2.156V1.145H.371V14zM19.954 1.145V12.02L7.298 1.145H4.31V14h2.156V3.254L18.993 14h3.117V1.145h-2.156zm12.083 13.09c5.402 0 8.742-.505 8.742-3.774 0-2.215-.797-3.645-4.055-3.844l-8.93-.387c-1.218-.07-1.898-.457-1.898-1.546 0-1.207 1.29-1.84 6.223-1.84 3.422 0 6.152.363 6.152 2.508h2.157c0-3.364-3.13-4.5-8.309-4.5-5.074 0-8.379.68-8.379 3.808 0 2.297 1.02 3.54 4.055 3.727l8.93.386c1.124.059 1.91.387 1.91 1.512 0 1.63-2.262 1.945-6.598 1.945-3.457 0-6.434-.351-6.434-2.484h-2.156c0 3.375 3.2 4.488 8.59 4.488zM58.241 14h2.508L51.983 1.145h-2.695L40.511 14h2.52l1.933-2.906h11.343L58.241 14zM46.288 9.102l4.348-6.516 4.347 6.516h-8.695zm30.763-7.957V12.02L64.394 1.145h-2.988V14h2.156V3.254L76.09 14h3.117V1.145H77.05zM81 14h2.156V1.145h-2.156V14zm10.454 0h2.156V3.137h7.688V1.145H83.791v1.992h7.664V14zm25.782-12.855l-6.715 5.46-6.715-5.46h-3.152l8.801 7.16V14h2.156V8.305l8.777-7.16h-3.152zm24.904 6.304c1.078-.644 1.5-1.64 1.5-2.883 0-2.554-1.875-3.421-4.91-3.421h-11.555V14h12.036c3.035 0 4.921-.855 4.921-3.434 0-1.406-.55-2.507-1.992-3.117zM139.2 3.137c1.488 0 2.285.375 2.285 1.71 0 1.395-.797 1.77-2.285 1.77h-9.867v-3.48h9.867zm.48 8.87h-10.347v-3.48h10.347c1.5 0 2.297.387 2.297 1.758 0 1.383-.855 1.723-2.297 1.723zM145.107 14h15.715v-1.992h-13.559V8.28h12.75V6.29h-12.75V3.137h13.395V1.145h-15.551V14zm23.556 0h2.156V3.137h7.687V1.145h-17.507v1.992h7.664V14zm18.165.234c5.402 0 8.742-.504 8.742-3.773 0-2.215-.797-3.645-4.055-3.844l-8.93-.387c-1.218-.07-1.898-.457-1.898-1.546 0-1.207 1.289-1.84 6.223-1.84 3.422 0 6.152.363 6.152 2.508h2.156c0-3.364-3.129-4.5-8.308-4.5-5.075 0-8.379.68-8.379 3.808 0 2.297 1.019 3.54 4.054 3.727l8.93.386c1.125.059 1.91.387 1.91 1.512 0 1.63-2.261 1.945-6.597 1.945-3.457 0-6.434-.351-6.434-2.484h-2.156c0 3.375 3.199 4.488 8.59 4.488z" fill="#fff"/></g><defs><clipPath id="kclip0_301_284"><path fill="#fff" d="M0 0h196v15H0z"/></clipPath></defs></svg><svg fill="none" viewBox="0 0 554 37" id="logo-decorated" xmlns="http://www.w3.org/2000/svg"><g clip-path="url(#lclip0_381_816)"><path d="M25.371 35h2.156V22.145h-2.156V35zm19.583-12.855V33.02L32.298 22.144h-2.989V35h2.157V24.254L43.993 35h3.117V22.145h-2.156zm12.083 13.09c5.402 0 8.742-.505 8.742-3.774 0-2.215-.797-3.645-4.054-3.844l-8.93-.387c-1.219-.07-1.899-.457-1.899-1.546 0-1.207 1.29-1.84 6.223-1.84 3.422 0 6.152.363 6.152 2.508h2.157c0-3.364-3.13-4.5-8.309-4.5-5.074 0-8.379.68-8.379 3.808 0 2.297 1.02 3.54 4.055 3.727l8.93.386c1.124.059 1.91.387 1.91 1.512 0 1.63-2.262 1.945-6.598 1.945-3.457 0-6.434-.351-6.434-2.484h-2.156c0 3.375 3.2 4.488 8.59 4.488zM83.241 35h2.508l-8.766-12.855h-2.695L65.511 35h2.52l1.933-2.906h11.344L83.24 35zm-11.953-4.898l4.348-6.516 4.347 6.516h-8.695zm30.763-7.957V33.02L89.394 22.144h-2.988V35h2.156V24.254L101.09 35h3.117V22.145h-2.156zM106.001 35h2.156V22.145h-2.156V35zm10.454 0h2.156V24.137h7.688v-1.992h-17.508v1.992h7.664V35zm25.782-12.855l-6.715 5.46-6.715-5.46h-3.152l8.801 7.16V35h2.156v-5.695l8.777-7.16h-3.152zm24.904 6.304c1.078-.644 1.5-1.64 1.5-2.883 0-2.554-1.875-3.421-4.91-3.421h-11.555V35h12.036c3.035 0 4.921-.855 4.921-3.434 0-1.406-.55-2.507-1.992-3.117zm-2.941-4.312c1.488 0 2.285.375 2.285 1.71 0 1.395-.797 1.77-2.285 1.77h-9.867v-3.48h9.867zm.48 8.87h-10.347v-3.48h10.347c1.5 0 2.297.387 2.297 1.758 0 1.383-.855 1.723-2.297 1.723zM170.107 35h15.715v-1.992h-13.559V29.28h12.75V27.29h-12.75v-3.152h13.395v-1.992h-15.551V35zm23.556 0h2.156V24.137h7.687v-1.992h-17.507v1.992h7.664V35zm18.165.234c5.402 0 8.742-.504 8.742-3.773 0-2.215-.797-3.645-4.055-3.844l-8.93-.387c-1.218-.07-1.898-.457-1.898-1.546 0-1.207 1.289-1.84 6.223-1.84 3.422 0 6.152.363 6.152 2.508h2.156c0-3.364-3.129-4.5-8.308-4.5-5.075 0-8.379.68-8.379 3.808 0 2.297 1.019 3.54 4.054 3.727l8.93.386c1.125.059 1.91.387 1.91 1.512 0 1.63-2.261 1.945-6.597 1.945-3.457 0-6.434-.351-6.434-2.484h-2.156c0 3.375 3.199 4.488 8.59 4.488z" fill="#fff"/></g><path d="M1 36V25C1 11.745 11.745 1 25 1h504c13.255 0 24 10.745 24 24v11" stroke="#fff" stroke-width="2" stroke-linecap="round"/><defs><clipPath id="lclip0_381_816"><path fill="#fff" transform="translate(25 21)" d="M0 0h196v15H0z"/></clipPath></defs></svg><svg fill="none" viewBox="0 0 32 18" id="medium" xmlns="http://www.w3.org/2000/svg"><path d="M18.05 9c0 4.97-4.04 9-9.026 9A9.012 9.012 0 010 9c0-4.972 4.04-9 9.024-9a9.012 9.012 0 019.026 9zm9.9 0c0 4.68-2.02 8.472-4.512 8.472-2.492 0-4.512-3.794-4.512-8.472 0-4.68 2.02-8.472 4.512-8.472C25.93.528 27.95 4.322 27.95 9zM32 9c0 4.192-.71 7.59-1.588 7.59-.876 0-1.586-3.4-1.586-7.59 0-4.192.71-7.59 1.588-7.59C31.29 1.41 32 4.808 32 9z" fill="#fff"/></svg><svg fill="none" viewBox="0 0 24 25" id="minus" xmlns="http://www.w3.org/2000/svg"><path d="M19 11.5H5a1 1 0 000 2h14a1 1 0 000-2z" fill="#fff"/></svg><svg fill="none" viewBox="0 0 16 16" id="plus" xmlns="http://www.w3.org/2000/svg"><path d="M14.857 9.143H9.143v5.714a1.143 1.143 0 01-2.286 0V9.143H1.143a1.143 1.143 0 010-2.286h5.714V1.143a1.143 1.143 0 012.286 0v5.714h5.714a1.143 1.143 0 010 2.286z" fill="#fff"/></svg><svg fill="none" viewBox="0 0 17 20" id="profile-icon" xmlns="http://www.w3.org/2000/svg"><path fill-rule="evenodd" clip-rule="evenodd" d="M8.43.667a4.124 4.124 0 100 8.248 4.124 4.124 0 000-8.248zM5.608 4.79a2.822 2.822 0 115.644 0 2.822 2.822 0 01-5.644 0zm2.822 5.426c-2.008 0-3.86.457-5.23 1.228-1.351.76-2.367 1.911-2.367 3.33v.089c0 1.008-.002 2.274 1.109 3.179.546.445 1.31.761 2.344.97 1.035.21 2.385.32 4.144.32 1.759 0 3.108-.11 4.145-.32 1.033-.209 1.797-.526 2.344-.97 1.11-.905 1.109-2.17 1.108-3.18v-.088c0-1.419-1.016-2.57-2.366-3.33-1.372-.771-3.222-1.228-5.231-1.228zm-6.295 4.558c0-.739.54-1.541 1.703-2.195 1.143-.642 2.764-1.06 4.593-1.06 1.827 0 3.448.418 4.591 1.06 1.163.654 1.703 1.456 1.703 2.195 0 1.136-.035 1.775-.63 2.257-.32.263-.859.519-1.779.704-.918.186-2.172.295-3.886.295s-2.97-.109-3.886-.294c-.92-.186-1.459-.442-1.78-.704-.594-.483-.629-1.122-.629-2.258z" fill="#fff"/></svg><svg fill="none" viewBox="0 0 140 140" id="qr-big" xmlns="http://www.w3.org/2000/svg"><path d="M16.074 62.296H46.89c8.474 0 15.408-6.933 15.408-15.407V16.074C62.297 7.6 55.363.667 46.889.667H16.074C7.6.667.667 7.6.667 16.074v30.815c0 8.474 6.933 15.407 15.407 15.407zm0-46.222H46.89v30.815H16.074V16.074zm0 123.259H46.89c8.474 0 15.408-6.933 15.408-15.407V93.111c0-8.474-6.934-15.407-15.408-15.407H16.074C7.6 77.704.667 84.637.667 93.11v30.815c0 8.474 6.933 15.407 15.407 15.407zm0-46.222H46.89v30.815H16.074V93.111zm61.63-77.037v30.815c0 8.474 6.933 15.407 15.407 15.407h30.815c8.474 0 15.408-6.933 15.408-15.407V16.074C139.334 7.6 132.4.667 123.926.667H93.111c-8.474 0-15.407 6.933-15.407 15.407zm46.222 30.815H93.111V16.074h30.815v30.815zm15.408 88.592v-7.703a3.815 3.815 0 00-3.852-3.852h-7.704a3.815 3.815 0 00-3.852 3.852v7.703a3.815 3.815 0 003.852 3.852h7.704a3.815 3.815 0 003.852-3.852zm-61.63-53.926v7.704a3.814 3.814 0 003.852 3.852h7.704a3.814 3.814 0 003.851-3.852v-7.704a3.814 3.814 0 00-3.851-3.852h-7.704a3.814 3.814 0 00-3.852 3.852zm26.963 11.556h-7.704a3.815 3.815 0 00-3.852 3.852v7.703a3.814 3.814 0 003.852 3.852h7.704a3.814 3.814 0 003.852-3.852v-7.703a3.815 3.815 0 00-3.852-3.852zM77.704 112.37v7.704a3.815 3.815 0 003.852 3.852h7.704a3.815 3.815 0 003.851-3.852v-7.704a3.815 3.815 0 00-3.851-3.852h-7.704a3.815 3.815 0 00-3.852 3.852zm19.26 26.963h7.703a3.815 3.815 0 003.852-3.852v-7.703a3.815 3.815 0 00-3.852-3.852h-7.704a3.815 3.815 0 00-3.852 3.852v7.703a3.815 3.815 0 003.852 3.852zm15.407-15.407h7.703a3.815 3.815 0 003.852-3.852v-7.704a3.815 3.815 0 00-3.852-3.852h-7.703a3.815 3.815 0 00-3.852 3.852v7.704a3.815 3.815 0 003.852 3.852zm7.703-46.222h-7.703a3.815 3.815 0 00-3.852 3.851v7.704a3.815 3.815 0 003.852 3.852h7.703a3.815 3.815 0 003.852-3.852v-7.704a3.815 3.815 0 00-3.852-3.852zm7.704 30.814h7.704a3.814 3.814 0 003.852-3.852v-7.703a3.815 3.815 0 00-3.852-3.852h-7.704a3.815 3.815 0 00-3.852 3.852v7.703a3.814 3.814 0 003.852 3.852z" fill="#fff"/></svg><svg fill="none" viewBox="0 0 20 20" id="qr-icon" xmlns="http://www.w3.org/2000/svg"><path d="M2.74 8.963H6.89a2.08 2.08 0 002.074-2.074V2.74A2.08 2.08 0 006.889.667H2.74A2.08 2.08 0 00.667 2.74v4.148A2.08 2.08 0 002.74 8.963zm0-6.222H6.89v4.148H2.74V2.74zm0 16.592H6.89a2.08 2.08 0 002.074-2.074v-4.148a2.08 2.08 0 00-2.074-2.074H2.74A2.08 2.08 0 00.667 13.11v4.148a2.08 2.08 0 002.074 2.074zm0-6.222H6.89v4.148H2.74v-4.148zm8.297-10.37v4.148a2.08 2.08 0 002.074 2.074h4.148a2.08 2.08 0 002.074-2.074V2.74A2.08 2.08 0 0017.26.667h-4.148a2.08 2.08 0 00-2.074 2.074zm6.222 4.148h-4.148V2.74h4.148v4.148zm2.074 11.926v-1.037a.513.513 0 00-.518-.519h-1.037a.513.513 0 00-.519.519v1.037c0 .29.228.518.519.518h1.037c.29 0 .518-.228.518-.518zm-8.296-7.26v1.037c0 .29.228.519.518.519h1.037c.29 0 .519-.228.519-.519v-1.037a.513.513 0 00-.519-.518h-1.037a.513.513 0 00-.518.518zm3.63 1.556H13.63a.514.514 0 00-.52.518v1.037c0 .29.23.519.52.519h1.036c.29 0 .519-.228.519-.519V13.63a.513.513 0 00-.519-.518zm-3.63 2.592v1.038c0 .29.228.518.518.518h1.037c.29 0 .519-.228.519-.518v-1.037a.513.513 0 00-.519-.519h-1.037a.513.513 0 00-.518.518zm2.592 3.63h1.037c.29 0 .519-.228.519-.518v-1.037a.513.513 0 00-.519-.519H13.63a.513.513 0 00-.518.519v1.037c0 .29.228.518.518.518zm2.075-2.074h1.037c.29 0 .518-.228.518-.518v-1.037a.513.513 0 00-.518-.519h-1.037a.514.514 0 00-.519.518v1.038c0 .29.228.518.518.518zm1.037-6.222h-1.037a.513.513 0 00-.519.518v1.037c0 .29.228.519.518.519h1.038c.29 0 .518-.228.518-.519v-1.037a.513.513 0 00-.518-.518zm1.037 4.148h1.037c.29 0 .518-.228.518-.519V13.63a.514.514 0 00-.518-.518h-1.037a.513.513 0 00-.519.518v1.037c0 .29.228.519.519.519z" fill="#fff"/></svg><svg fill="none" viewBox="0 0 22 22" id="tg" xmlns="http://www.w3.org/2000/svg"><path d="M11.333.333C5.445.333.667 5.113.667 11c0 5.888 4.778 10.667 10.666 10.667C17.221 21.667 22 16.888 22 11S17.22.333 11.333.333zm4.95 7.254c-.16 1.685-.854 5.781-1.206 7.67-.15.8-.448 1.066-.725 1.098-.619.053-1.088-.405-1.686-.8-.938-.619-1.472-1.003-2.378-1.6-1.056-.694-.373-1.078.235-1.696.16-.16 2.89-2.646 2.944-2.87a.213.213 0 00-.054-.191c-.064-.054-.15-.033-.224-.022-.096.021-1.59 1.014-4.501 2.976-.427.288-.81.438-1.152.427-.384-.01-1.11-.213-1.653-.395-.673-.213-1.195-.33-1.152-.704.02-.192.288-.384.789-.587 3.114-1.354 5.184-2.25 6.219-2.677 2.965-1.237 3.573-1.45 3.978-1.45.085 0 .288.02.416.128a.424.424 0 01.15.287c-.011.064.01.256 0 .406z" fill="#fff"/></svg><svg fill="none" viewBox="0 0 15 20" id="transaction-icon" xmlns="http://www.w3.org/2000/svg"><path fill-rule="evenodd" clip-rule="evenodd" d="M4.667.667c.469 0 .848.38.848.848v.848H8.91v-.848a.848.848 0 111.697 0v.848h2.121c.938 0 1.697.76 1.697 1.697v13.576c0 .937-.76 1.697-1.697 1.697H1.697C.76 19.333 0 18.573 0 17.636V4.06c0-.937.76-1.697 1.697-1.697h2.121v-.848c0-.469.38-.848.849-.848zM3.818 7.03a.848.848 0 100 1.697h6.788a.849.849 0 000-1.697H3.818zm0 3.394a.848.848 0 000 1.697H8.91a.848.848 0 100-1.697h-5.09zm0 3.394a.848.848 0 000 1.697h3.394a.849.849 0 000-1.697H3.818z" fill="#fff"/></svg><svg fill="none" viewBox="0 0 32 32" id="twitter" xmlns="http://www.w3.org/2000/svg"><path fill-rule="evenodd" clip-rule="evenodd" d="M.192.974A1.778 1.778 0 011.778 0h7.586c.566 0 1.098.27 1.433.726l7.6 10.363L28.964.521a1.778 1.778 0 112.514 2.514L20.524 13.99l11.132 15.18A1.778 1.778 0 0130.222 32h-7.585c-.567 0-1.1-.27-1.434-.727l-7.6-10.362L3.036 31.479A1.778 1.778 0 11.52 28.965L11.476 18.01.344 2.83A1.778 1.778 0 01.192.973zm16.466 13.758c.055.091.12.179.192.261l9.864 13.451h-3.177L5.286 3.556h3.177l8.195 11.176z" fill="#fff"/></svg><svg fill="none" viewBox="0 0 16 16" id="usdc" xmlns="http://www.w3.org/2000/svg"><path d="M8 0a8 8 0 018 8 8 8 0 01-8 8 8 8 0 01-8-8 8 8 0 018-8zm1.676 2.78c-.122-.06-.244 0-.274.122-.03.03-.03.06-.03.121v.425l.005.052a.43.43 0 00.177.252c2.377.85 3.596 3.49 2.712 5.826a4.498 4.498 0 01-2.712 2.701c-.122.06-.183.152-.183.303v.425l.003.045a.225.225 0 00.18.198c.03 0 .091 0 .122-.03a5.449 5.449 0 003.565-6.859A5.513 5.513 0 009.676 2.78zm-3.23-.03c-.03 0-.091 0-.122.03a5.447 5.447 0 00-3.565 6.859 5.468 5.468 0 003.565 3.55c.122.061.244 0 .274-.121.03-.03.03-.061.03-.121v-.425l-.005-.04a.452.452 0 00-.177-.233c-2.377-.85-3.596-3.49-2.712-5.827a4.498 4.498 0 012.712-2.701c.122-.06.183-.151.183-.304v-.424l-.003-.044a.225.225 0 00-.18-.199zm1.768 1.578h-.458l-.044.004c-.1.02-.173.106-.2.239v.698l-.103.016c-.854.152-1.39.742-1.39 1.471 0 1.001.61 1.396 1.89 1.547.853.152 1.127.334 1.127.82 0 .485-.426.819-1.005.819-.793 0-1.067-.334-1.159-.789-.03-.121-.122-.182-.213-.182h-.518l-.04.004a.207.207 0 00-.173.209v.03l.016.09c.146.711.633 1.221 1.599 1.367v.728l.004.044c.02.099.107.172.24.199h.457l.044-.005c.1-.02.173-.106.2-.238v-.729l.104-.02c.856-.181 1.42-.8 1.42-1.588 0-1.062-.64-1.426-1.92-1.578-.915-.122-1.098-.364-1.098-.79 0-.425.306-.697.915-.697.548 0 .853.181 1.005.637a.229.229 0 00.213.151h.488l.04-.003a.207.207 0 00.174-.209v-.03l-.019-.087a1.52 1.52 0 00-1.353-1.158v-.727l-.004-.044c-.02-.1-.106-.173-.24-.199z" fill="#fff"/></svg><svg fill="none" viewBox="0 0 16 16" id="usdt" xmlns="http://www.w3.org/2000/svg"><path fill-rule="evenodd" clip-rule="evenodd" d="M8 16a8 8 0 01-8-8 8 8 0 018-8 8 8 0 018 8 8 8 0 01-8 8zm.961-9.104V5.713h2.707V3.91h-7.37v1.804h2.707v1.183c-2.2.101-3.855.537-3.855 1.059 0 .522 1.655.957 3.855 1.059v3.791H8.96V9.013c2.197-.101 3.847-.537 3.847-1.058s-1.65-.957-3.847-1.059zm0 1.795c-.055.003-.338.02-.971.02-.505 0-.86-.014-.986-.02v.001c-1.943-.085-3.394-.424-3.394-.829 0-.405 1.45-.743 3.395-.83v1.322c.127.009.49.03.994.03.603 0 .906-.024.962-.03V7.034c1.94.087 3.387.425 3.387.829 0 .405-1.447.742-3.387.828z" fill="#fff"/></svg><svg fill="none" viewBox="0 0 16 16" id="usdt-bet" xmlns="http://www.w3.org/2000/svg"><path fill-rule="evenodd" clip-rule="evenodd" d="M15.333 8A7.333 7.333 0 11.667 8a7.333 7.333 0 0114.666 0zM16 8A8 8 0 110 8a8 8 0 0116 0zM2.133 10h.534V6h-.534v4zm1.129 0h1.91c.934 0 1.495-.428 1.495-1.156 0-.605-.405-.938-.872-1 .472-.15.7-.427.7-.844 0-.622-.556-1-1.45-1H3.262v4zM3.8 7.683v-1.26h1.395c.483 0 .761.233.761.633 0 .427-.256.627-.822.627H3.8zm0 1.895V8.11h1.55c.473 0 .778.289.778.733 0 .49-.3.734-.9.734H3.8zM10.14 10H7.016V6h3.05v.433h-2.51v1.284h2.183v.422H7.555v1.439h2.584V10zm1.696 0h.54V6.422h1.482V6h-3.505v.422h1.483V10z" fill="#fff"/></svg><svg fill="none" viewBox="0 0 20 22" id="whitepaper" xmlns="http://www.w3.org/2000/svg"><path d="M2.8 14.2V1.4A1.067 1.067 0 013.867.333H18.74A1.067 1.067 0 0119.808 1.4v17.067a3.2 3.2 0 01-3.2 3.2H3.867a3.2 3.2 0 01-3.2-3.2v-2.133H15.54v2.133a1.067 1.067 0 002.134 0V14.2H2.8z" fill="#fff"/></svg></svg>