<svg width="16" height="16" viewBox="0 0 16 16" fill="none" xmlns="http://www.w3.org/2000/svg">
<path d="M7.2002 7.18392C7.2002 6.97175 7.28448 6.76827 7.43451 6.61824C7.58454 6.46821 7.78802 6.38392 8.0002 6.38392C8.21237 6.38392 8.41585 6.46821 8.56588 6.61824C8.71591 6.76827 8.8002 6.97175 8.8002 7.18392V11.9839C8.8002 12.1961 8.71591 12.3996 8.56588 12.5496C8.41585 12.6996 8.21237 12.7839 8.0002 12.7839C7.78802 12.7839 7.58454 12.6996 7.43451 12.5496C7.28448 12.3996 7.2002 12.1961 7.2002 11.9839V7.18392ZM8.0002 3.24072C7.78802 3.24072 7.58454 3.32501 7.43451 3.47504C7.28448 3.62507 7.2002 3.82855 7.2002 4.04072C7.2002 4.2529 7.28448 4.45638 7.43451 4.60641C7.58454 4.75644 7.78802 4.84072 8.0002 4.84072C8.21237 4.84072 8.41585 4.75644 8.56588 4.60641C8.71591 4.45638 8.8002 4.2529 8.8002 4.04072C8.8002 3.82855 8.71591 3.62507 8.56588 3.47504C8.41585 3.32501 8.21237 3.24072 8.0002 3.24072Z" fill="white"/>
<path fill-rule="evenodd" clip-rule="evenodd" d="M8 0C3.5816 0 0 3.5816 0 8C0 12.4184 3.5816 16 8 16C12.4184 16 16 12.4184 16 8C16 3.5816 12.4184 0 8 0ZM1.6 8C1.6 9.69739 2.27428 11.3253 3.47452 12.5255C4.67475 13.7257 6.30261 14.4 8 14.4C9.69739 14.4 11.3253 13.7257 12.5255 12.5255C13.7257 11.3253 14.4 9.69739 14.4 8C14.4 6.30261 13.7257 4.67475 12.5255 3.47452C11.3253 2.27428 9.69739 1.6 8 1.6C6.30261 1.6 4.67475 2.27428 3.47452 3.47452C2.27428 4.67475 1.6 6.30261 1.6 8Z" fill="white"/>
</svg>
