<svg width="32" height="18" viewBox="0 0 32 18" fill="none" xmlns="http://www.w3.org/2000/svg">
<g id="Group 12">
<path id="Vector" d="M18.05 9.00001C18.05 13.97 14.01 18 9.024 18C7.84053 18.0016 6.66833 17.77 5.57434 17.3186C4.48035 16.8672 3.48599 16.2047 2.64804 15.3689C1.81008 14.5332 1.14494 13.5406 0.690588 12.4478C0.236237 11.3551 0.00157481 10.1835 0 9.00001C0 4.02801 4.04 1.08878e-05 9.024 1.08878e-05C10.2076 -0.00182893 11.3801 0.229518 12.4743 0.680839C13.5685 1.13216 14.5631 1.79462 15.4013 2.63037C16.2394 3.46612 16.9047 4.4588 17.3592 5.55172C17.8137 6.64463 18.0484 7.81637 18.05 9.00001ZM27.95 9.00001C27.95 13.68 25.93 17.472 23.438 17.472C20.946 17.472 18.926 13.678 18.926 9.00001C18.926 4.32001 20.946 0.528011 23.438 0.528011C25.93 0.528011 27.95 4.32201 27.95 9.00001ZM32 9.00001C32 13.192 31.29 16.59 30.412 16.59C29.536 16.59 28.826 13.19 28.826 9.00001C28.826 4.80801 29.536 1.41001 30.414 1.41001C31.29 1.41001 32 4.80801 32 9.00001Z" fill="white"/>
</g>
</svg>
