<svg width="22" height="22" viewBox="0 0 22 22" fill="none" xmlns="http://www.w3.org/2000/svg">
<path d="M11.3332 0.333496C5.44517 0.333496 0.666504 5.11216 0.666504 11.0002C0.666504 16.8882 5.44517 21.6668 11.3332 21.6668C17.2212 21.6668 21.9998 16.8882 21.9998 11.0002C21.9998 5.11216 17.2212 0.333496 11.3332 0.333496ZM16.2825 7.58683C16.1225 9.27216 15.4292 13.3682 15.0772 15.2562C14.9278 16.0562 14.6292 16.3228 14.3518 16.3548C13.7332 16.4082 13.2638 15.9495 12.6665 15.5548C11.7278 14.9362 11.1945 14.5522 10.2878 13.9548C9.23184 13.2615 9.9145 12.8775 10.5225 12.2588C10.6825 12.0988 13.4132 9.61349 13.4665 9.38949C13.4739 9.35557 13.4729 9.32035 13.4636 9.28689C13.4543 9.25343 13.437 9.22274 13.4132 9.1975C13.3492 9.14416 13.2638 9.1655 13.1892 9.17616C13.0932 9.1975 11.5998 10.1895 8.68784 12.1522C8.26117 12.4402 7.87717 12.5895 7.53584 12.5788C7.15184 12.5682 6.4265 12.3655 5.8825 12.1842C5.2105 11.9708 4.68784 11.8535 4.7305 11.4802C4.75184 11.2882 5.0185 11.0962 5.51984 10.8935C8.6345 9.53883 10.7038 8.64283 11.7385 8.21616C14.7038 6.97883 15.3118 6.7655 15.7172 6.7655C15.8025 6.7655 16.0052 6.78683 16.1332 6.8935C16.2398 6.97883 16.2718 7.09616 16.2825 7.1815C16.2718 7.2455 16.2932 7.4375 16.2825 7.58683Z" fill="white"/>
</svg>
