<svg width="32" height="32" viewBox="0 0 32 32" fill="none" xmlns="http://www.w3.org/2000/svg">
<path fill-rule="evenodd" clip-rule="evenodd" d="M0.191996 0.974184C0.494817 0.376604 1.10786 2.6491e-08 1.77779 2.6491e-08H9.36356C9.92987 2.6491e-08 10.4623 0.269806 10.7972 0.726484L18.3964 11.0894L28.9652 0.520699C29.6594 -0.173566 30.785 -0.173566 31.4793 0.520699C32.1736 1.21496 32.1736 2.34059 31.4793 3.03486L20.5238 13.9904L31.6559 29.1709C32.052 29.7112 32.1108 30.4282 31.808 31.0258C31.5052 31.6234 30.8922 32 30.2222 32H22.6365C22.0701 32 21.5377 31.7302 21.2028 31.2735L13.6036 20.9106L3.03486 31.4793C2.3406 32.1736 1.21497 32.1736 0.520707 31.4793C-0.173558 30.785 -0.173558 29.6594 0.520707 28.9651L11.4762 18.0096L0.344163 2.82907C-0.0519999 2.28883 -0.110825 1.57176 0.191996 0.974184ZM16.6583 14.7317C16.7132 14.8231 16.7771 14.9106 16.8499 14.993L26.714 28.4444H23.5373L5.286 3.55556H8.46268L16.6583 14.7317Z" fill="white"/>
</svg>
