<svg width="16" height="16" viewBox="0 0 16 16" fill="none" xmlns="http://www.w3.org/2000/svg">
<path fill-rule="evenodd" clip-rule="evenodd" d="M15.3333 8C15.3333 12.0501 12.0501 15.3333 8 15.3333C3.94991 15.3333 0.666667 12.0501 0.666667 8C0.666667 3.94991 3.94991 0.666667 8 0.666667C12.0501 0.666667 15.3333 3.94991 15.3333 8ZM16 8C16 12.4183 12.4183 16 8 16C3.58172 16 0 12.4183 0 8C0 3.58172 3.58172 0 8 0C12.4183 0 16 3.58172 16 8ZM2.1333 10H2.66663V6H2.1333V10ZM3.2616 10H5.17271C6.10604 10 6.66716 9.57222 6.66716 8.84444C6.66716 8.23889 6.2616 7.90556 5.79493 7.84444C6.26716 7.69444 6.49493 7.41667 6.49493 7C6.49493 6.37778 5.93938 6 5.04493 6H3.2616V10ZM3.80049 7.68333V6.42222H5.19493C5.67827 6.42222 5.95604 6.65556 5.95604 7.05556C5.95604 7.48333 5.70049 7.68333 5.13382 7.68333H3.80049ZM3.80049 9.57778V8.11111H5.35049C5.82271 8.11111 6.12827 8.4 6.12827 8.84444C6.12827 9.33333 5.82827 9.57778 5.22827 9.57778H3.80049ZM10.1385 10H7.01629V6H10.0663V6.43333H7.55518V7.71667H9.73851V8.13889H7.55518V9.57778H10.1385V10ZM11.8352 10H12.3741V6.42222H13.8574V6H10.3519V6.42222H11.8352V10Z" fill="white"/>
</svg>
