<svg width="16" height="9" viewBox="0 0 16 9" fill="none" xmlns="http://www.w3.org/2000/svg">
<path d="M0.292566 0.305058C0.479952 0.117728 0.734068 0.0124924 0.999032 0.0124924C1.264 0.0124924 1.51811 0.117728 1.7055 0.305058L7.99375 6.59331L14.282 0.305058C14.3742 0.20962 14.4844 0.133495 14.6064 0.0811252C14.7283 0.0287557 14.8594 0.00119067 14.9921 3.77279e-05C15.1248 -0.00111522 15.2563 0.0241677 15.3791 0.0744106C15.5019 0.124654 15.6135 0.198851 15.7073 0.292673C15.8011 0.386494 15.8753 0.498062 15.9256 0.620866C15.9758 0.743669 16.0011 0.875249 16 1.00793C15.9988 1.14061 15.9712 1.27173 15.9189 1.39364C15.8665 1.51555 15.7904 1.62581 15.6949 1.71799L8.70022 8.71271C8.51283 8.90004 8.25872 9.00528 7.99375 9.00528C7.72879 9.00528 7.47467 8.90004 7.28729 8.71271L0.292566 1.71799C0.105236 1.53061 0 1.27649 0 1.01152C0 0.746561 0.105236 0.492444 0.292566 0.305058Z" fill="white"/>
</svg>
