<svg width="9" height="16" viewBox="0 0 9 16" fill="none" xmlns="http://www.w3.org/2000/svg">
<path d="M8.33064 10.5804C8.33064 11.4911 8.0345 12.2753 7.44224 12.933C6.84998 13.5908 6.08064 13.997 5.13421 14.1518V15.7143C5.13421 15.7976 5.10742 15.8661 5.05385 15.9196C5.00028 15.9732 4.93183 16 4.84849 16H3.64314C3.56575 16 3.49879 15.9717 3.44224 15.9152C3.3857 15.8586 3.35742 15.7917 3.35742 15.7143V14.1518C2.96456 14.0982 2.5851 14.006 2.21903 13.875C1.85296 13.744 1.55087 13.6116 1.31278 13.4777C1.07468 13.3438 0.854446 13.2009 0.652065 13.0491C0.449684 12.8973 0.311291 12.7857 0.236886 12.7143C0.162481 12.6429 0.110398 12.5893 0.0806362 12.5536C-0.0205543 12.4286 -0.0265067 12.3065 0.062779 12.1875L0.982422 10.9821C1.02409 10.9226 1.09254 10.8869 1.18778 10.875C1.27706 10.8631 1.34849 10.8899 1.40206 10.9554L1.41992 10.9732C2.09254 11.5625 2.81576 11.9345 3.58956 12.0893C3.8098 12.1369 4.03004 12.1607 4.25028 12.1607C4.73242 12.1607 5.15653 12.0327 5.5226 11.7768C5.88867 11.5208 6.07171 11.1577 6.07171 10.6875C6.07171 10.5208 6.02706 10.3631 5.93778 10.2143C5.84849 10.0655 5.74879 9.94048 5.63867 9.83929C5.52855 9.7381 5.35445 9.62649 5.11635 9.50447C4.87825 9.38244 4.68183 9.2872 4.52706 9.21875C4.3723 9.1503 4.13421 9.05357 3.81278 8.92857C3.58064 8.83333 3.3976 8.75893 3.26367 8.70536C3.12974 8.65179 2.94671 8.57292 2.71456 8.46875C2.48242 8.36458 2.29641 8.27232 2.15653 8.19197C2.01665 8.11161 1.84849 8.00595 1.65206 7.875C1.45564 7.74405 1.29641 7.61756 1.17439 7.49554C1.05236 7.37351 0.922898 7.22768 0.785993 7.05804C0.649089 6.88839 0.543434 6.71577 0.469029 6.54018C0.394624 6.36458 0.332124 6.16667 0.281529 5.94643C0.230934 5.72619 0.205636 5.49405 0.205636 5.25C0.205636 4.42857 0.497303 3.70833 1.08064 3.08929C1.66397 2.47024 2.4229 2.07143 3.35742 1.89286V0.285714C3.35742 0.208333 3.3857 0.141369 3.44224 0.0848214C3.49879 0.0282738 3.56575 0 3.64314 0H4.84849C4.93183 0 5.00028 0.0267857 5.05385 0.0803571C5.10742 0.133929 5.13421 0.202381 5.13421 0.285714V1.85714C5.47349 1.89286 5.80236 1.96131 6.12081 2.0625C6.43927 2.16369 6.6982 2.26339 6.8976 2.36161C7.097 2.45982 7.28599 2.57143 7.46456 2.69643C7.64314 2.82143 7.75921 2.90774 7.81278 2.95536C7.86635 3.00298 7.91099 3.04464 7.94671 3.08036C8.0479 3.1875 8.06278 3.3006 7.99135 3.41964L7.26814 4.72321C7.22052 4.8125 7.15206 4.86012 7.06278 4.86607C6.97945 4.88393 6.89909 4.8631 6.82171 4.80357C6.80385 4.78571 6.7607 4.75 6.69224 4.69643C6.62379 4.64286 6.50772 4.56399 6.34403 4.45982C6.18034 4.35565 6.00623 4.26042 5.82171 4.17411C5.63718 4.0878 5.41546 4.01042 5.15653 3.94196C4.8976 3.87351 4.64314 3.83929 4.39314 3.83929C3.82766 3.83929 3.36635 3.96726 3.00921 4.22321C2.65206 4.47917 2.47349 4.80952 2.47349 5.21429C2.47349 5.36905 2.49879 5.51191 2.54939 5.64286C2.59998 5.77381 2.68778 5.89732 2.81278 6.01339C2.93778 6.12946 3.05534 6.22768 3.16546 6.30804C3.27558 6.38839 3.44224 6.48066 3.66546 6.58482C3.88867 6.68899 4.06873 6.76935 4.20564 6.82589C4.34254 6.88244 4.55087 6.96429 4.83064 7.07143C5.14611 7.19048 5.38718 7.28423 5.55385 7.35268C5.72052 7.42113 5.94671 7.5253 6.23242 7.66518C6.51814 7.80506 6.74284 7.93155 6.90653 8.04464C7.07022 8.15774 7.25474 8.30655 7.4601 8.49107C7.66546 8.6756 7.8232 8.86458 7.93331 9.05804C8.04343 9.25149 8.13718 9.47917 8.21456 9.74107C8.29195 10.003 8.33064 10.2827 8.33064 10.5804Z" fill="white"/>
</svg>
