<svg width="554" height="37" viewBox="0 0 554 37" fill="none" xmlns="http://www.w3.org/2000/svg">
<g clip-path="url(#clip0_381_816)">
<path d="M25.3711 35H27.5273V22.1445H25.3711V35ZM44.9541 22.1445V33.0195L32.2978 22.1445H29.3095V35H31.4658V24.2539L43.9931 35H47.1103V22.1445H44.9541ZM57.037 35.2344C62.4394 35.2344 65.7792 34.7305 65.7792 31.4609C65.7792 29.2461 64.9823 27.8164 61.7245 27.6172L52.7948 27.2305C51.5761 27.1602 50.8964 26.7734 50.8964 25.6836C50.8964 24.4766 52.1855 23.8438 57.1191 23.8438C60.5409 23.8438 63.2714 24.207 63.2714 26.3516H65.4277C65.4277 22.9883 62.2987 21.8516 57.1191 21.8516C52.0448 21.8516 48.7402 22.5313 48.7402 25.6602C48.7402 27.957 49.7597 29.1992 52.7948 29.3867L61.7245 29.7734C62.8495 29.832 63.6347 30.1602 63.6347 31.2852C63.6347 32.9141 61.373 33.2305 57.037 33.2305C53.58 33.2305 50.6034 32.8789 50.6034 30.7461H48.4472C48.4472 34.1211 51.6464 35.2344 57.037 35.2344ZM83.2411 35H85.7489L76.9833 22.1445H74.288L65.5106 35H68.0302L69.9637 32.0938H81.3075L83.2411 35ZM71.288 30.1016L75.6356 23.5859L79.9833 30.1016H71.288ZM102.051 22.1445V33.0195L89.3944 22.1445H86.4061V35H88.5623V24.2539L101.09 35H104.207V22.1445H102.051ZM106.001 35H108.157V22.1445H106.001V35ZM116.455 35H118.611V24.1367H126.299V22.1445H108.791V24.1367H116.455V35ZM142.237 22.1445L135.522 27.6055L128.807 22.1445H125.655L134.456 29.3047V35H136.612V29.3047L145.389 22.1445H142.237ZM167.141 28.4492C168.219 27.8047 168.641 26.8086 168.641 25.5664C168.641 23.0117 166.766 22.1445 163.731 22.1445H152.176V35H164.212C167.247 35 169.133 34.1445 169.133 31.5664C169.133 30.1602 168.583 29.0586 167.141 28.4492ZM164.2 24.1367C165.688 24.1367 166.485 24.5117 166.485 25.8477C166.485 27.2422 165.688 27.6172 164.2 27.6172H154.333V24.1367H164.2ZM164.68 33.0078H154.333V29.5273H164.68C166.18 29.5273 166.977 29.9141 166.977 31.2852C166.977 32.668 166.122 33.0078 164.68 33.0078ZM170.107 35H185.822V33.0078H172.263V29.2813H185.013V27.2891H172.263V24.1367H185.658V22.1445H170.107V35ZM193.663 35H195.819V24.1367H203.506V22.1445H185.999V24.1367H193.663V35ZM211.828 35.2344C217.23 35.2344 220.57 34.7305 220.57 31.4609C220.57 29.2461 219.773 27.8164 216.515 27.6172L207.585 27.2305C206.367 27.1602 205.687 26.7734 205.687 25.6836C205.687 24.4766 206.976 23.8438 211.91 23.8438C215.332 23.8438 218.062 24.207 218.062 26.3516H220.218C220.218 22.9883 217.089 21.8516 211.91 21.8516C206.835 21.8516 203.531 22.5313 203.531 25.6602C203.531 27.957 204.55 29.1992 207.585 29.3867L216.515 29.7734C217.64 29.832 218.425 30.1602 218.425 31.2852C218.425 32.9141 216.164 33.2305 211.828 33.2305C208.371 33.2305 205.394 32.8789 205.394 30.7461H203.238C203.238 34.1211 206.437 35.2344 211.828 35.2344Z" fill="white"/>
</g>
<path d="M1 36V25C1 11.7452 11.7452 1 25 1H529C542.255 1 553 11.7452 553 25V36" stroke="white" stroke-width="2" stroke-linecap="round"/>
<defs>
<clipPath id="clip0_381_816">
<rect width="196" height="15" fill="white" transform="translate(25 21)"/>
</clipPath>
</defs>
</svg>
