<svg width="196" height="15" viewBox="0 0 196 15" fill="none" xmlns="http://www.w3.org/2000/svg">
<g clip-path="url(#clip0_301_284)">
<path d="M0.371094 14H2.52734V1.14453H0.371094V14ZM19.9541 1.14453V12.0195L7.29781 1.14453H4.30953V14H6.46578V3.25391L18.9931 14H22.1103V1.14453H19.9541ZM32.037 14.2344C37.4394 14.2344 40.7792 13.7305 40.7792 10.4609C40.7792 8.24609 39.9823 6.81641 36.7245 6.61719L27.7948 6.23047C26.5761 6.16016 25.8964 5.77344 25.8964 4.68359C25.8964 3.47656 27.1855 2.84375 32.1191 2.84375C35.5409 2.84375 38.2714 3.20703 38.2714 5.35156H40.4277C40.4277 1.98828 37.2987 0.851562 32.1191 0.851562C27.0448 0.851562 23.7402 1.53125 23.7402 4.66016C23.7402 6.95703 24.7597 8.19922 27.7948 8.38672L36.7245 8.77344C37.8495 8.83203 38.6347 9.16016 38.6347 10.2852C38.6347 11.9141 36.373 12.2305 32.037 12.2305C28.58 12.2305 25.6034 11.8789 25.6034 9.74609H23.4472C23.4472 13.1211 26.6464 14.2344 32.037 14.2344ZM58.2411 14H60.7489L51.9833 1.14453H49.288L40.5106 14H43.0302L44.9637 11.0938H56.3075L58.2411 14ZM46.288 9.10156L50.6356 2.58594L54.9833 9.10156H46.288ZM77.0506 1.14453V12.0195L64.3944 1.14453H61.4061V14H63.5623V3.25391L76.0897 14H79.2069V1.14453H77.0506ZM81.0008 14H83.157V1.14453H81.0008V14ZM91.4548 14H93.6111V3.13672H101.299V1.14453H83.7908V3.13672H91.4548V14ZM117.237 1.14453L110.522 6.60547L103.807 1.14453H100.655L109.456 8.30469V14H111.612V8.30469L120.389 1.14453H117.237ZM142.141 7.44922C143.219 6.80469 143.641 5.80859 143.641 4.56641C143.641 2.01172 141.766 1.14453 138.731 1.14453H127.176V14H139.212C142.247 14 144.133 13.1445 144.133 10.5664C144.133 9.16016 143.583 8.05859 142.141 7.44922ZM139.2 3.13672C140.688 3.13672 141.485 3.51172 141.485 4.84766C141.485 6.24219 140.688 6.61719 139.2 6.61719H129.333V3.13672H139.2ZM139.68 12.0078H129.333V8.52734H139.68C141.18 8.52734 141.977 8.91406 141.977 10.2852C141.977 11.668 141.122 12.0078 139.68 12.0078ZM145.107 14H160.822V12.0078H147.263V8.28125H160.013V6.28906H147.263V3.13672H160.658V1.14453H145.107V14ZM168.663 14H170.819V3.13672H178.506V1.14453H160.999V3.13672H168.663V14ZM186.828 14.2344C192.23 14.2344 195.57 13.7305 195.57 10.4609C195.57 8.24609 194.773 6.81641 191.515 6.61719L182.585 6.23047C181.367 6.16016 180.687 5.77344 180.687 4.68359C180.687 3.47656 181.976 2.84375 186.91 2.84375C190.332 2.84375 193.062 3.20703 193.062 5.35156H195.218C195.218 1.98828 192.089 0.851562 186.91 0.851562C181.835 0.851562 178.531 1.53125 178.531 4.66016C178.531 6.95703 179.55 8.19922 182.585 8.38672L191.515 8.77344C192.64 8.83203 193.425 9.16016 193.425 10.2852C193.425 11.9141 191.164 12.2305 186.828 12.2305C183.371 12.2305 180.394 11.8789 180.394 9.74609H178.238C178.238 13.1211 181.437 14.2344 186.828 14.2344Z" fill="white"/>
</g>
<defs>
<clipPath id="clip0_301_284">
<rect width="196" height="15" fill="white"/>
</clipPath>
</defs>
</svg>
