<svg width="140" height="140" viewBox="0 0 140 140" fill="none" xmlns="http://www.w3.org/2000/svg">
<path d="M16.0744 62.2961H46.8892C55.3633 62.2961 62.2966 55.3628 62.2966 46.8887V16.0739C62.2966 7.59984 55.3633 0.666504 46.8892 0.666504H16.0744C7.60032 0.666504 0.666992 7.59984 0.666992 16.0739V46.8887C0.666992 55.3628 7.60032 62.2961 16.0744 62.2961ZM16.0744 16.0739H46.8892V46.8887H16.0744V16.0739ZM16.0744 139.333H46.8892C55.3633 139.333 62.2966 132.4 62.2966 123.926V93.1109C62.2966 84.6369 55.3633 77.7035 46.8892 77.7035H16.0744C7.60032 77.7035 0.666992 84.6369 0.666992 93.1109V123.926C0.666992 132.4 7.60032 139.333 16.0744 139.333ZM16.0744 93.1109H46.8892V123.926H16.0744V93.1109ZM77.704 16.0739V46.8887C77.704 55.3628 84.6374 62.2961 93.1114 62.2961H123.926C132.4 62.2961 139.334 55.3628 139.334 46.8887V16.0739C139.334 7.59984 132.4 0.666504 123.926 0.666504H93.1114C84.6374 0.666504 77.704 7.59984 77.704 16.0739ZM123.926 46.8887H93.1114V16.0739H123.926V46.8887ZM139.334 135.481V127.778C139.334 125.621 137.639 123.926 135.482 123.926H127.778C125.621 123.926 123.926 125.621 123.926 127.778V135.481C123.926 137.638 125.621 139.333 127.778 139.333H135.482C137.639 139.333 139.334 137.638 139.334 135.481ZM77.704 81.5554V89.2591C77.704 91.4161 79.3988 93.1109 81.5559 93.1109H89.2596C91.4166 93.1109 93.1114 91.4161 93.1114 89.2591V81.5554C93.1114 79.3983 91.4166 77.7035 89.2596 77.7035H81.5559C79.3988 77.7035 77.704 79.3983 77.704 81.5554ZM104.667 93.1109H96.9633C94.8062 93.1109 93.1114 94.8058 93.1114 96.9628V104.666C93.1114 106.824 94.8062 108.518 96.9633 108.518H104.667C106.824 108.518 108.519 106.824 108.519 104.666V96.9628C108.519 94.8058 106.824 93.1109 104.667 93.1109ZM77.704 112.37V120.074C77.704 122.231 79.3988 123.926 81.5559 123.926H89.2596C91.4166 123.926 93.1114 122.231 93.1114 120.074V112.37C93.1114 110.213 91.4166 108.518 89.2596 108.518H81.5559C79.3988 108.518 77.704 110.213 77.704 112.37ZM96.9633 139.333H104.667C106.824 139.333 108.519 137.638 108.519 135.481V127.778C108.519 125.621 106.824 123.926 104.667 123.926H96.9633C94.8062 123.926 93.1114 125.621 93.1114 127.778V135.481C93.1114 137.638 94.8062 139.333 96.9633 139.333ZM112.371 123.926H120.074C122.231 123.926 123.926 122.231 123.926 120.074V112.37C123.926 110.213 122.231 108.518 120.074 108.518H112.371C110.214 108.518 108.519 110.213 108.519 112.37V120.074C108.519 122.231 110.214 123.926 112.371 123.926ZM120.074 77.7035H112.371C110.214 77.7035 108.519 79.3983 108.519 81.5554V89.2591C108.519 91.4161 110.214 93.1109 112.371 93.1109H120.074C122.231 93.1109 123.926 91.4161 123.926 89.2591V81.5554C123.926 79.3983 122.231 77.7035 120.074 77.7035ZM127.778 108.518H135.482C137.639 108.518 139.334 106.824 139.334 104.666V96.9628C139.334 94.8058 137.639 93.1109 135.482 93.1109H127.778C125.621 93.1109 123.926 94.8058 123.926 96.9628V104.666C123.926 106.824 125.621 108.518 127.778 108.518Z" fill="white"/>
</svg>
