<svg width="20" height="20" viewBox="0 0 20 20" fill="none" xmlns="http://www.w3.org/2000/svg">
<path d="M2.74058 8.9628H6.88873C8.02947 8.9628 8.9628 8.02947 8.9628 6.88873V2.74058C8.9628 1.59984 8.02947 0.666504 6.88873 0.666504H2.74058C1.59984 0.666504 0.666504 1.59984 0.666504 2.74058V6.88873C0.666504 8.02947 1.59984 8.9628 2.74058 8.9628ZM2.74058 2.74058H6.88873V6.88873H2.74058V2.74058ZM2.74058 19.3332H6.88873C8.02947 19.3332 8.9628 18.3998 8.9628 17.2591V13.1109C8.9628 11.9702 8.02947 11.0369 6.88873 11.0369H2.74058C1.59984 11.0369 0.666504 11.9702 0.666504 13.1109V17.2591C0.666504 18.3998 1.59984 19.3332 2.74058 19.3332ZM2.74058 13.1109H6.88873V17.2591H2.74058V13.1109ZM11.0369 2.74058V6.88873C11.0369 8.02947 11.9702 8.9628 13.1109 8.9628H17.2591C18.3998 8.9628 19.3332 8.02947 19.3332 6.88873V2.74058C19.3332 1.59984 18.3998 0.666504 17.2591 0.666504H13.1109C11.9702 0.666504 11.0369 1.59984 11.0369 2.74058ZM17.2591 6.88873H13.1109V2.74058H17.2591V6.88873ZM19.3332 18.8147V17.7776C19.3332 17.4872 19.105 17.2591 18.8147 17.2591H17.7776C17.4872 17.2591 17.2591 17.4872 17.2591 17.7776V18.8147C17.2591 19.105 17.4872 19.3332 17.7776 19.3332H18.8147C19.105 19.3332 19.3332 19.105 19.3332 18.8147ZM11.0369 11.5554V12.5924C11.0369 12.8828 11.265 13.1109 11.5554 13.1109H12.5924C12.8828 13.1109 13.1109 12.8828 13.1109 12.5924V11.5554C13.1109 11.265 12.8828 11.0369 12.5924 11.0369H11.5554C11.265 11.0369 11.0369 11.265 11.0369 11.5554ZM14.6665 13.1109H13.6295C13.3391 13.1109 13.1109 13.3391 13.1109 13.6295V14.6665C13.1109 14.9569 13.3391 15.185 13.6295 15.185H14.6665C14.9569 15.185 15.185 14.9569 15.185 14.6665V13.6295C15.185 13.3391 14.9569 13.1109 14.6665 13.1109ZM11.0369 15.7035V16.7406C11.0369 17.031 11.265 17.2591 11.5554 17.2591H12.5924C12.8828 17.2591 13.1109 17.031 13.1109 16.7406V15.7035C13.1109 15.4132 12.8828 15.185 12.5924 15.185H11.5554C11.265 15.185 11.0369 15.4132 11.0369 15.7035ZM13.6295 19.3332H14.6665C14.9569 19.3332 15.185 19.105 15.185 18.8147V17.7776C15.185 17.4872 14.9569 17.2591 14.6665 17.2591H13.6295C13.3391 17.2591 13.1109 17.4872 13.1109 17.7776V18.8147C13.1109 19.105 13.3391 19.3332 13.6295 19.3332ZM15.7035 17.2591H16.7406C17.031 17.2591 17.2591 17.031 17.2591 16.7406V15.7035C17.2591 15.4132 17.031 15.185 16.7406 15.185H15.7035C15.4132 15.185 15.185 15.4132 15.185 15.7035V16.7406C15.185 17.031 15.4132 17.2591 15.7035 17.2591ZM16.7406 11.0369H15.7035C15.4132 11.0369 15.185 11.265 15.185 11.5554V12.5924C15.185 12.8828 15.4132 13.1109 15.7035 13.1109H16.7406C17.031 13.1109 17.2591 12.8828 17.2591 12.5924V11.5554C17.2591 11.265 17.031 11.0369 16.7406 11.0369ZM17.7776 15.185H18.8147C19.105 15.185 19.3332 14.9569 19.3332 14.6665V13.6295C19.3332 13.3391 19.105 13.1109 18.8147 13.1109H17.7776C17.4872 13.1109 17.2591 13.3391 17.2591 13.6295V14.6665C17.2591 14.9569 17.4872 15.185 17.7776 15.185Z" fill="white"/>
</svg>
