<svg width="15" height="20" viewBox="0 0 15 20" fill="none" xmlns="http://www.w3.org/2000/svg">
<path fill-rule="evenodd" clip-rule="evenodd" d="M4.66693 0.666504C5.13553 0.666504 5.51541 1.04638 5.51541 1.51499V2.36347H8.90935V1.51499C8.90935 1.04638 9.28923 0.666504 9.75783 0.666504C10.2264 0.666504 10.6063 1.04638 10.6063 1.51499V2.36347H12.7273C13.6645 2.36347 14.4242 3.12323 14.4242 4.06044V17.6362C14.4242 18.5734 13.6645 19.3332 12.7273 19.3332H1.69697C0.759759 19.3332 0 18.5734 0 17.6362V4.06044C0 3.12323 0.759759 2.36347 1.69697 2.36347H3.81844V1.51499C3.81844 1.04638 4.19832 0.666504 4.66693 0.666504ZM3.81813 7.03014C3.34952 7.03014 2.96965 7.41002 2.96965 7.87862C2.96965 8.34723 3.34952 8.72711 3.81813 8.72711H10.606C11.0746 8.72711 11.4545 8.34723 11.4545 7.87862C11.4545 7.41002 11.0746 7.03014 10.606 7.03014H3.81813ZM3.81813 10.4241C3.34952 10.4241 2.96965 10.804 2.96965 11.2726C2.96965 11.7412 3.34952 12.121 3.81813 12.121H8.90904C9.37764 12.121 9.75752 11.7412 9.75752 11.2726C9.75752 10.804 9.37764 10.4241 8.90904 10.4241H3.81813ZM3.81813 13.818C3.34952 13.818 2.96965 14.1979 2.96965 14.6665C2.96965 15.1351 3.34952 15.515 3.81813 15.515H7.21207C7.68067 15.515 8.06055 15.1351 8.06055 14.6665C8.06055 14.1979 7.68067 13.818 7.21207 13.818H3.81813Z" fill="white"/>
</svg>
