<svg width="20" height="22" viewBox="0 0 20 22" fill="none" xmlns="http://www.w3.org/2000/svg">
<path d="M2.79984 14.2002V1.40016C2.79984 1.11727 2.91222 0.845954 3.11226 0.645915C3.3123 0.445877 3.58361 0.333496 3.8665 0.333496H18.7405C19.0234 0.333496 19.2948 0.445877 19.4948 0.645915C19.6948 0.845954 19.8072 1.11727 19.8072 1.40016V18.4668C19.8072 19.3155 19.4701 20.1295 18.87 20.7296C18.2698 21.3297 17.4559 21.6668 16.6072 21.6668H3.8665C3.01781 21.6668 2.20388 21.3297 1.60376 20.7296C1.00365 20.1295 0.666504 19.3155 0.666504 18.4668V16.3335H15.5405V18.4668C15.5405 18.7497 15.6529 19.021 15.853 19.2211C16.053 19.4211 16.3243 19.5335 16.6072 19.5335C16.8901 19.5335 17.1614 19.4211 17.3615 19.2211C17.5615 19.021 17.6739 18.7497 17.6739 18.4668V14.2002H2.79984Z" fill="white"/>
</svg>
